<svg id="Logo_rekerned_" data-name="Logo (rekerned)" xmlns="http://www.w3.org/2000/svg" width="1434" height="949" viewBox="0 0 1434 949">
  <defs>
    <style>
      .cls-1 {
        fill: #202020;
      }

      .cls-1, .cls-2 {
        fill-rule: evenodd;
      }

      .cls-2 {
        fill: #1eb488;
      }
    </style>
  </defs>
  <path id="shopdesk" class="cls-1" d="M0.948,824c0.231,10.778,2.408,19.648,6.514,27.494a56.786,56.786,0,0,0,16.885,19.678,74.171,74.171,0,0,0,25.328,11.771,124.189,124.189,0,0,0,31.836,3.866A132.808,132.808,0,0,0,110,883.646a87.189,87.189,0,0,0,26.207-10.19,58.36,58.36,0,0,0,19.172-18.272q7.387-11.243,7.388-27.409,0-13.35-5.1-22.489A46.232,46.232,0,0,0,144.3,790.177a69.353,69.353,0,0,0-18.82-9.488q-10.552-3.508-21.458-5.973-11.262-2.456-21.81-4.569a130.9,130.9,0,0,1-18.82-5.1A40.2,40.2,0,0,1,50.027,757.5a15.264,15.264,0,0,1-5.1-11.947,13.42,13.42,0,0,1,3.518-9.663,22.917,22.917,0,0,1,8.618-5.622,46.754,46.754,0,0,1,10.9-2.636,85.585,85.585,0,0,1,10.026-.7,54.84,54.84,0,0,1,23.745,4.919q10.371,4.925,13.191,19.326H156.79q-1.764-15.1-8.618-25.827a56.845,56.845,0,0,0-17.237-17.393,73.316,73.316,0,0,0-23.217-9.664A118.721,118.721,0,0,0,80.807,695.3a145.092,145.092,0,0,0-25.855,2.459,79.84,79.84,0,0,0-24.624,8.609,55.254,55.254,0,0,0-18.292,16.164Q4.821,732.55,4.824,747.307q0,13.7,4.925,23.016A43.785,43.785,0,0,0,22.94,785.609,69.551,69.551,0,0,0,41.584,795.1a199.9,199.9,0,0,0,21.634,5.974q10.9,2.462,21.458,4.568a131.785,131.785,0,0,1,18.82,5.095,39.1,39.1,0,0,1,13.543,7.906,17.7,17.7,0,0,1,5.628,12.65q0.346,7.734-3.694,12.474a25.443,25.443,0,0,1-10.377,7.2,55.694,55.694,0,0,1-13.543,3.338,107.031,107.031,0,0,1-12.84.879q-16.184,0-27.79-7.028c-7.739-4.684-12.3-12.439-13.476-24.156h-40Zm172.816,57.889h40.1V774.716a54.545,54.545,0,0,1,3.165-18.624,47.951,47.951,0,0,1,8.795-15.286,39.63,39.63,0,0,1,13.719-10.19,43.588,43.588,0,0,1,18.292-3.689q17.941,0,26.383,9.663t9.147,31.1v114.2h40.1V757.146q0-30.917-17.237-46.383T269.1,695.3a64.961,64.961,0,0,0-32.539,8.257q-14.6,8.261-21.986,20.556h-0.7V631h-40.1V881.889Zm301.155-2.284a82.91,82.91,0,0,0,28.846-19.853,84.929,84.929,0,0,0,17.94-30.22,123.322,123.322,0,0,0,0-76.954,84.968,84.968,0,0,0-17.94-30.219,82.966,82.966,0,0,0-28.846-19.854q-17.067-7.2-38.871-7.2t-38.871,7.2a82.864,82.864,0,0,0-28.846,19.854,84.793,84.793,0,0,0-17.94,30.219,123.322,123.322,0,0,0,0,76.954,84.754,84.754,0,0,0,17.94,30.22,82.808,82.808,0,0,0,28.846,19.853q17.058,7.2,38.871,7.2T474.919,879.605Zm-62.088-30.044A48.82,48.82,0,0,1,396.649,834.8a64.275,64.275,0,0,1-9.322-20.556,92.118,92.118,0,0,1,0-46.559,62.075,62.075,0,0,1,9.322-20.557,49.691,49.691,0,0,1,16.182-14.582q9.844-5.618,23.217-5.622t23.217,5.622a49.741,49.741,0,0,1,16.182,14.582,62.176,62.176,0,0,1,9.322,20.557,92.118,92.118,0,0,1,0,46.559,64.383,64.383,0,0,1-9.322,20.556,48.868,48.868,0,0,1-16.182,14.758q-9.852,5.625-23.217,5.623T412.831,849.561ZM537.575,949h40.1V858.346h0.7a49.586,49.586,0,0,0,11.433,12.826,66.261,66.261,0,0,0,14.95,8.96,76.114,76.114,0,0,0,16.885,5.1,99.082,99.082,0,0,0,17.589,1.582q20.05,0,34.826-7.907a72.1,72.1,0,0,0,24.448-21.083,92.311,92.311,0,0,0,14.423-30.395,132.835,132.835,0,0,0,4.749-35.491,130.1,130.1,0,0,0-5.277-37.6,90.039,90.039,0,0,0-15.83-30.747,73.918,73.918,0,0,0-26.559-20.732q-16.011-7.551-37.464-7.554a78.327,78.327,0,0,0-32.715,6.852q-15.129,6.852-23.569,22.664h-0.7v-24.6H537.575V949ZM674.943,814.6a59.169,59.169,0,0,1-8.794,20.381A49.048,49.048,0,0,1,650.5,849.561q-9.5,5.625-23.217,5.623a45.628,45.628,0,0,1-21.635-4.92,49.964,49.964,0,0,1-16-13.353,57.209,57.209,0,0,1-10.026-20.2,92.8,92.8,0,0,1-3.342-25.476q0-29.163,12.84-46.735t38.168-17.569a43.082,43.082,0,0,1,21.81,5.446,49.058,49.058,0,0,1,15.829,14.407,64.869,64.869,0,0,1,9.5,20.556,90.314,90.314,0,0,1,3.166,23.895A103.432,103.432,0,0,1,674.943,814.6ZM907.03,631h-40.1v92.767h-0.7a49.788,49.788,0,0,0-11.432-12.826,66.792,66.792,0,0,0-14.951-8.96,76.29,76.29,0,0,0-16.885-5.095,97.329,97.329,0,0,0-17.237-1.581,80.7,80.7,0,0,0-29.021,5.446A68.733,68.733,0,0,0,751.37,717.79q-11.081,11.6-17.765,29.517t-6.683,42.518a133.134,133.134,0,0,0,5.276,38.126,87.894,87.894,0,0,0,15.83,30.746,74.646,74.646,0,0,0,26.559,20.557q16,7.552,37.464,7.555a79.949,79.949,0,0,0,32.715-6.852,47.635,47.635,0,0,0,23.569-22.665h0.7v24.6H907.03V631ZM769.662,768.918a62.72,62.72,0,0,1,8.795-21.084,48.757,48.757,0,0,1,15.829-15.109q9.672-5.8,23.745-5.8,23.217,0,36.761,16.866t13.543,47.086a92,92,0,0,1-2.99,23.368A66.793,66.793,0,0,1,856.2,834.8a47.716,47.716,0,0,1-15.83,14.758q-9.679,5.625-23.042,5.623-13.017,0-22.513-5.271a46.2,46.2,0,0,1-15.654-14.056,62.4,62.4,0,0,1-9.146-20.029,88.425,88.425,0,0,1-2.99-22.84A109.742,109.742,0,0,1,769.662,768.918ZM957.2,775.067a53.222,53.222,0,0,1,4.045-18.975,50.465,50.465,0,0,1,9.85-15.286,43.8,43.8,0,0,1,14.775-10.19,48.217,48.217,0,0,1,19.17-3.689,41.54,41.54,0,0,1,18.47,4.041,45.343,45.343,0,0,1,14.07,10.541,48.8,48.8,0,0,1,9.15,15.286,64.846,64.846,0,0,1,4.04,18.272H957.2Zm133.67,26.354a104.082,104.082,0,0,0-2.63-39.531,96.247,96.247,0,0,0-16.36-33.909,84.606,84.606,0,0,0-28.32-23.719q-17.07-8.961-38.52-8.96-20.4,0-36.583,7.73a84.07,84.07,0,0,0-27.614,20.908,93.864,93.864,0,0,0-17.589,30.571,109.2,109.2,0,0,0-6.156,36.72,122.623,122.623,0,0,0,5.8,38.653A83.41,83.41,0,0,0,940.139,860.1a78.461,78.461,0,0,0,27.966,19.678q16.53,7.025,38,7.028a98.6,98.6,0,0,0,28.31-4.041,80.435,80.435,0,0,0,24.45-11.948,75.84,75.84,0,0,0,18.65-19.5c5.15-7.73,10.38-17.479,12.49-27.318h-39c-3.52,10.075-9.43,18.594-16.59,23.629s-16.59,7.555-28.31,7.555q-12.669,0-21.813-4.393A43.151,43.151,0,0,1,969.16,839.02a50.077,50.077,0,0,1-8.97-17.218,69.633,69.633,0,0,1-2.99-20.381h133.67ZM1090,824c0.23,10.778,6.07,19.648,10.18,27.494a56.731,56.731,0,0,0,16.88,19.678,74.123,74.123,0,0,0,25.33,11.771,124.169,124.169,0,0,0,31.83,3.866,132.862,132.862,0,0,0,28.5-3.163,87.2,87.2,0,0,0,26.2-10.19,58.385,58.385,0,0,0,19.18-18.272q7.38-11.243,7.38-27.409,0-13.35-5.1-22.489a46.265,46.265,0,0,0-13.36-15.109,69.541,69.541,0,0,0-18.82-9.488q-10.56-3.508-21.46-5.973-11.265-2.456-21.81-4.569a130.476,130.476,0,0,1-18.82-5.1,40.176,40.176,0,0,1-13.37-7.555,15.272,15.272,0,0,1-5.1-11.947,13.409,13.409,0,0,1,3.52-9.663,22.851,22.851,0,0,1,8.62-5.622,46.623,46.623,0,0,1,10.9-2.636,85.578,85.578,0,0,1,10.03-.7,54.814,54.814,0,0,1,23.74,4.919q10.38,4.925,13.19,19.326h41.86q-1.755-15.1-8.62-25.827a56.845,56.845,0,0,0-17.23-17.393,73.314,73.314,0,0,0-23.22-9.664,118.669,118.669,0,0,0-26.91-2.986,145.2,145.2,0,0,0-25.86,2.459,79.846,79.846,0,0,0-24.62,8.609,55.183,55.183,0,0,0-18.29,16.164q-7.215,10.016-7.21,24.773,0,13.7,4.92,23.016a43.8,43.8,0,0,0,13.19,15.286,69.628,69.628,0,0,0,18.65,9.487,199.426,199.426,0,0,0,21.63,5.974q10.9,2.462,21.46,4.568a131.486,131.486,0,0,1,18.82,5.095,38.983,38.983,0,0,1,13.54,7.906,17.674,17.674,0,0,1,5.63,12.65q0.345,7.734-3.69,12.474a25.473,25.473,0,0,1-10.38,7.2,55.7,55.7,0,0,1-13.54,3.338,107.027,107.027,0,0,1-12.84.879q-16.185,0-27.79-7.028c-7.74-4.684-14.97-12.439-16.14-24.156h-41Zm174.93,57.889h40.11V816.882l23.92-23.191,55.58,88.2h48.89l-76.33-114.9,69.65-66.764H1377.5l-72.46,73.44V631h-40.11V881.889Z"/>
  <path id="Mark" class="cls-2" d="M930,560H864a20,20,0,0,1,0-40h66a160,160,0,0,0,0-320H704c-33.3,0-60.795,27.1-60.795,60.36A60.166,60.166,0,0,0,673.353,312.5l104.406,60.245a100.313,100.313,0,0,1-50.225,187.238c-4.213,0-7.534.015-7.534,0.015H464a160,160,0,0,1,0-320C464,107.452,571.452,0,704,0A239.44,239.44,0,0,1,887.231,85.029a19.99,19.99,0,1,1-27.373,29.113l-0.238.238A199.6,199.6,0,0,0,704,40c-110.457,0-200,89.543-200,200v20a20,20,0,0,1-20,20H464a120,120,0,0,0,0,240H727c33.294,0,60.815-27.108,60.817-60.36,0-41.063-27.524-50.643-27.524-50.643-50.907-29.354-107.041-61.737-107.041-61.737a100.275,100.275,0,0,1-50.242-86.9C603.01,207.113,648.531,160,701,160H930c110.46,0,200,89.543,200,200S1040.46,560,930,560Z"/>
</svg>
