<svg id="Logo_rekerned_" data-name="Logo (rekerned)" xmlns="http://www.w3.org/2000/svg" width="826" height="560" viewBox="0 0 826 560">
  <defs>
    <style>
      .cls-1 {
        fill: #1eb488;
        fill-rule: evenodd;
      }
    </style>
  </defs>
  <path id="Mark" class="cls-1" d="M626,560H560a20,20,0,0,1,0-40h66a160,160,0,0,0,0-320H400c-33.3,0-60.8,27.1-60.8,60.36A60.166,60.166,0,0,0,369.353,312.5l104.406,60.245a100.313,100.313,0,0,1-50.225,187.238c-4.213,0-7.534.015-7.534,0.015H160a160,160,0,0,1,0-320C160,107.452,267.452,0,400,0A239.44,239.44,0,0,1,583.231,85.029a19.99,19.99,0,1,1-27.373,29.113l-0.238.238A199.6,199.6,0,0,0,400,40c-110.457,0-200,89.543-200,200v20a20,20,0,0,1-20,20H160a120,120,0,0,0,0,240H423c33.294,0,60.815-27.108,60.817-60.36,0-41.063-27.524-50.643-27.524-50.643-50.907-29.354-107.041-61.737-107.041-61.737a100.275,100.275,0,0,1-50.242-86.9C299.01,207.113,344.531,160,397,160H626c110.457,0,200,89.543,200,200S736.457,560,626,560Z"/>
</svg>
